{"asset":{"generator":"3D Builder","version":"2.0"},"scene":0,"scenes":[{"nodes":[0]}],"nodes":[{"children":[1,2,3,4,5]},{"mesh":0,"matrix":[100.00000762939453,0,0,0,0,-1.1920929864572827E-5,-99.999992370605469,0,0,99.999992370605469,-1.1920929864572827E-5,0,0,4.9999995231628418,-5.9604644775390625E-7,1]},{"mesh":1,"matrix":[100.00000762939453,0,0,0,0,-1.1920929864572827E-5,-99.999992370605469,0,0,99.999992370605469,-1.1920929864572827E-5,0,0,4.9999995231628418,-5.9604644775390625E-7,1]},{"mesh":2,"matrix":[100.00000762939453,0,0,0,0,-1.1920929864572827E-5,-99.999992370605469,0,0,99.999992370605469,-1.1920929864572827E-5,0,0,4.9999995231628418,-5.9604644775390625E-7,1]},{"mesh":3,"matrix":[100.00000762939453,0,0,0,0,-1.1920929864572827E-5,-99.999992370605469,0,0,99.999992370605469,-1.1920929864572827E-5,0,0,4.9999995231628418,-5.9604644775390625E-7,1]},{"mesh":4,"matrix":[100.00000762939453,0,0,0,0,-1.1920929864572827E-5,-99.999992370605469,0,0,99.999992370605469,-1.1920929864572827E-5,0,0,4.9999995231628418,-5.9604644775390625E-7,1]}],"meshes":[{"primitives":[{"attributes":{"POSITION":0,"COLOR_0":1},"mode":4,"indices":2}]},{"primitives":[{"attributes":{"POSITION":3,"COLOR_0":4},"mode":4,"indices":5}]},{"primitives":[{"attributes":{"POSITION":6,"COLOR_0":7},"mode":4,"indices":8}]},{"primitives":[{"attributes":{"POSITION":9,"COLOR_0":10},"mode":4,"indices":11}]},{"primitives":[{"attributes":{"POSITION":12,"COLOR_0":13},"mode":4,"indices":14}]}],"accessors":[{"bufferView":0,"byteOffset":0,"count":19011,"componentType":5126,"type":"VEC3","min":[0.098540864884853363,-0.013998047448694706,-0.014000025577843189],"max":[0.11440729349851608,0.014000128954648972,0.042630735784769058]},{"bufferView":1,"byteOffset":0,"count":19011,"componentType":5121,"type":"VEC4","normalized":true},{"bufferView":2,"byteOffset":0,"count":108516,"componentType":5125,"type":"SCALAR"},{"bufferView":3,"byteOffset":0,"count":18893,"componentType":5126,"type":"VEC3","min":[-0.11440729349851608,-0.013998047448694706,-0.014000025577843189],"max":[-0.098540864884853363,0.014000128954648972,0.042630735784769058]},{"bufferView":4,"byteOffset":0,"count":18893,"componentType":5121,"type":"VEC4","normalized":true},{"bufferView":5,"byteOffset":0,"count":108516,"componentType":5125,"type":"SCALAR"},{"bufferView":6,"byteOffset":0,"count":4431,"componentType":5126,"type":"VEC3","min":[0.075530342757701874,-0.05000000074505806,-0.05000000074505806],"max":[0.099030345678329468,0.05000000074505806,0.05000000074505806]},{"bufferView":7,"byteOffset":0,"count":4431,"componentType":5121,"type":"VEC4","normalized":true},{"bufferView":8,"byteOffset":0,"count":25272,"componentType":5125,"type":"SCALAR"},{"bufferView":9,"byteOffset":0,"count":4428,"componentType":5126,"type":"VEC3","min":[-0.099030345678329468,-0.05000000074505806,-0.05000000074505806],"max":[-0.075530342757701874,0.05000000074505806,0.05000000074505806]},{"bufferView":10,"byteOffset":0,"count":4428,"componentType":5121,"type":"VEC4","normalized":true},{"bufferView":11,"byteOffset":0,"count":25272,"componentType":5125,"type":"SCALAR"},{"bufferView":12,"byteOffset":0,"count":6448,"componentType":5126,"type":"VEC3","min":[-0.18200001120567322,-0.015000000596046448,-0.015000000596046448],"max":[0.18200001120567322,0.015000000596046448,0.015000000596046448]},{"bufferView":13,"byteOffset":0,"count":6448,"componentType":5121,"type":"VEC4","normalized":true},{"bufferView":14,"byteOffset":0,"count":34128,"componentType":5125,"type":"SCALAR"}],"bufferViews":[{"buffer":0,"byteOffset":0,"byteLength":228132,"byteStride":12,"target":34962},{"buffer":0,"byteOffset":228132,"byteLength":76044,"byteStride":4,"target":34962},{"buffer":0,"byteOffset":304176,"byteLength":434064,"target":34963},{"buffer":0,"byteOffset":738240,"byteLength":226716,"byteStride":12,"target":34962},{"buffer":0,"byteOffset":964956,"byteLength":75572,"byteStride":4,"target":34962},{"buffer":0,"byteOffset":1040528,"byteLength":434064,"target":34963},{"buffer":0,"byteOffset":1474592,"byteLength":53172,"byteStride":12,"target":34962},{"buffer":0,"byteOffset":1527764,"byteLength":17724,"byteStride":4,"target":34962},{"buffer":0,"byteOffset":1545488,"byteLength":101088,"target":34963},{"buffer":0,"byteOffset":1646576,"byteLength":53136,"byteStride":12,"target":34962},{"buffer":0,"byteOffset":1699712,"byteLength":17712,"byteStride":4,"target":34962},{"buffer":0,"byteOffset":1717424,"byteLength":101088,"target":34963},{"buffer":0,"byteOffset":1818512,"byteLength":77376,"byteStride":12,"target":34962},{"buffer":0,"byteOffset":1895888,"byteLength":25792,"byteStride":4,"target":34962},{"buffer":0,"byteOffset":1921680,"byteLength":136512,"target":34963}],"buffers":[{"byteLength":2058192,"uri":"Dumbbell.bin"}]}