{"asset":{"generator":"3D Builder","version":"2.0"},"scene":0,"scenes":[{"nodes":[0]}],"nodes":[{"mesh":0,"matrix":[1,0,0,0,0,-1.1920928955078125E-7,-0.99999988079071045,0,0,0.99999988079071045,-1.1920928955078125E-7,0,0,0,0,1]}],"meshes":[{"primitives":[{"attributes":{"POSITION":0},"mode":4,"indices":2,"material":0},{"attributes":{"POSITION":1},"mode":4,"indices":3,"material":0}]}],"materials":[{"name":"Turquoise","pbrMetallicRoughness":{"baseColorFactor":[0,0.3515326976776123,0.80695247650146484,1],"metallicFactor":0,"roughnessFactor":1},"alphaMode":"OPAQUE"}],"accessors":[{"bufferView":0,"byteOffset":0,"count":1044,"componentType":5126,"type":"VEC3","min":[-0.020000025629997253,-0.019999995827674866,0],"max":[0.020000025629997253,0.01999998651444912,0.004999999888241291]},{"bufferView":0,"byteOffset":12528,"count":804,"componentType":5126,"type":"VEC3","min":[-0.017499998211860657,-0.017500003799796104,0],"max":[0.017499998211860657,0.017499992623925209,0.004999999888241291]},{"bufferView":1,"byteOffset":0,"count":3852,"componentType":5125,"type":"SCALAR"},{"bufferView":1,"byteOffset":15408,"count":2412,"componentType":5125,"type":"SCALAR"}],"bufferViews":[{"buffer":0,"byteOffset":0,"byteLength":22176,"byteStride":12,"target":34962},{"buffer":0,"byteOffset":22176,"byteLength":25056,"target":34963}],"buffers":[{"byteLength":47232,"uri":"wheel.bin"}]}